<svg width="50" height="50" viewBox="0 0 512 512" style="color:currentColor" xmlns="http://www.w3.org/2000/svg" class="h-full w-full"><rect width="512" height="512" x="0" y="0" rx="30" fill="transparent" stroke="transparent" stroke-width="0" stroke-opacity="100%" paint-order="stroke"></rect><svg width="256px" height="256px" viewBox="0 0 48 48" fill="currentColor" x="128" y="128" role="img" style="display:inline-block;vertical-align:middle" xmlns="http://www.w3.org/2000/svg"><g fill="currentColor"><path fill="none" stroke="currentColor" stroke-linecap="round" stroke-linejoin="round" d="M17.08 18.25v-7.83a2.16 2.16 0 0 1 1.75-2.13L38 4.54a2.16 2.16 0 0 1 2.58 2.13v7"/><path fill="none" stroke="currentColor" stroke-linecap="round" stroke-linejoin="round" d="M17.08 19.57a2.16 2.16 0 0 1 1.75-2.13L38 13.69a2.16 2.16 0 0 1 2.58 2.12m-.03-2.16v18.56M17.08 18.25v20.43"/><circle cx="12.27" cy="38.68" r="4.82" fill="none" stroke="currentColor" stroke-linecap="round" stroke-linejoin="round"/><circle cx="35.73" cy="32.21" r="4.82" fill="none" stroke="currentColor" stroke-linecap="round" stroke-linejoin="round"/></g></svg></svg>